<svg xmlns="http://www.w3.org/2000/svg" width="24" height="24" viewBox="0 0 24 24" fill="none" stroke="currentColor" stroke-width="2" stroke-linecap="round" stroke-linejoin="round"><circle cx="12" cy="12" r="2"></circle><path d="M16.24 7.76c-.39-.39-1.02-.39-1.41 0l-1.42 1.42c-.39.39-.39 1.02 0 1.41l1.42 1.42c.39.39 1.02.39 1.41 0l1.42-1.42c.39-.39.39-1.02 0-1.41l-1.42-1.42zM7.76 16.24c-.39-.39-1.02-.39-1.41 0l-1.42 1.42c-.39.39-.39 1.02 0 1.41l1.42 1.42c.39.39 1.02.39 1.41 0l1.42-1.42c.39-.39.39-1.02 0-1.41l-1.42-1.42zM12 22a10 10 0 1 0 0-20 10 10 0 0 0 0 20z"></path></svg>
